<svg width="64" height="64" viewBox="0 0 64 64" xmlns="http://www.w3.org/2000/svg" role="img" aria-label="canvai">
  <rect width="64" height="64" rx="15" fill="#20232e"/>
  <!-- the edge: two participants on one canvas -->
  <path d="M24 25 L40 39" stroke="#ffffff" stroke-width="3" stroke-linecap="round" opacity="0.34"/>
  <!-- your card — with a folded corner -->
  <path d="M13.5 12 H28 L34 18 V26.5 A4.5 4.5 0 0 1 29.5 31 H13.5 A4.5 4.5 0 0 1 9 26.5 V16.5 A4.5 4.5 0 0 1 13.5 12 Z" fill="#fff3e2"/>
  <path d="M28 12 L34 18 H28 Z" fill="#e7d6bd"/>
  <circle cx="16.8" cy="20.5" r="1.7" fill="#182a25"/>
  <circle cx="24.6" cy="20.5" r="1.7" fill="#182a25"/>
  <path d="M17 24.2 Q20.7 27 24.4 24.2" stroke="#182a25" stroke-width="1.6" fill="none" stroke-linecap="round"/>
  <circle cx="13.4" cy="23.8" r="1.8" fill="#ff9e86" opacity="0.85"/>
  <circle cx="28" cy="23.8" r="1.8" fill="#ff9e86" opacity="0.85"/>
  <!-- the agent's card -->
  <rect x="30" y="33" width="25" height="19" rx="5" fill="#3ee0a1"/>
  <circle cx="38.6" cy="41.5" r="1.7" fill="#182a25"/>
  <circle cx="46.4" cy="41.5" r="1.7" fill="#182a25"/>
  <path d="M38.9 45.2 Q42.6 48 46.3 45.2" stroke="#182a25" stroke-width="1.6" fill="none" stroke-linecap="round"/>
</svg>
